<svg width="26" height="26" viewBox="0 0 26 26" fill="none" xmlns="http://www.w3.org/2000/svg">
<path d="M7.47655 11.0516C8.35859 11.0516 9.07363 11.7567 9.07363 12.6264C9.07363 13.4961 8.35859 14.2011 7.47655 14.2011C6.5945 14.2011 5.87946 13.4961 5.87946 12.6264C5.87946 11.7567 6.5945 11.0516 7.47655 11.0516Z" fill="#FCFCFD"/>
<path d="M12.8002 11.0516C13.6822 11.0516 14.3972 11.7567 14.3972 12.6264C14.3972 13.4961 13.6822 14.2011 12.8002 14.2011C11.9181 14.2011 11.2031 13.4961 11.2031 12.6264C11.2031 11.7567 11.9181 11.0516 12.8002 11.0516Z" fill="#FCFCFD"/>
<path d="M18.1238 11.0516C19.0058 11.0516 19.7209 11.7567 19.7209 12.6264C19.7209 13.4961 19.0058 14.2011 18.1238 14.2011C17.2417 14.2011 16.5267 13.4961 16.5267 12.6264C16.5267 11.7567 17.2417 11.0516 18.1238 11.0516Z" fill="#FCFCFD"/>
</svg>
